<?xml version="1.0" encoding="utf-8"?>
<!-- Generator: Adobe Illustrator 25.4.1, SVG Export Plug-In . SVG Version: 6.00 Build 0)  -->
<svg version="1.1" id="Layer_1" xmlns="http://www.w3.org/2000/svg" xmlns:xlink="http://www.w3.org/1999/xlink" x="0px" y="0px"
	 viewBox="0 0 205.4 205.3" style="enable-background:new 0 0 205.4 205.3;" xml:space="preserve">
<style type="text/css">
	.st0{fill:#f84b24;}
</style>
<g>
	<g>
		<path class="st0" d="M128.6,115.5c-10.3,0-20.1-2.9-28.7-8.6c-0.5-0.4-1-0.8-1.4-1.3C91.2,94.7,88.2,82,90,68.5
			c3.4-25.4,29.2-47.6,55.2-47.6c0.2,0,0.4,0,0.6,0c18.3,0,32.8-5.8,49.9-19.8c2-1.6,4.9-1.5,6.7,0.3c1.8,1.8,2,4.7,0.4,6.7
			c-13.9,17.4-19.4,32.1-19,50.6l0,0c0.5,26.1-21.3,52.3-46.8,56.1C134.2,115.2,131.4,115.5,128.6,115.5z M106.3,99
			c8.7,5.5,18.5,7.5,29.3,5.9c20.4-3,38.6-25,38.2-46c-0.3-13.1,2.2-24.7,7.8-36.3c-11.5,5.8-23.2,8.6-36.2,8.4c0,0-0.1,0-0.2,0
			c-21,0-42.6,18.5-45.3,38.9C98.5,80.6,100.6,90.4,106.3,99z"/>
	</g>
	<g>
		<path class="st0" d="M6.5,205.3c-1.3,0-2.5-0.5-3.5-1.4c-1.8-1.8-2-4.7-0.4-6.7c13.9-17.4,19.4-32.1,19-50.6
			c-0.5-26.1,21.3-52.4,46.7-56.1c13.4-2,26.2,0.8,37.1,8c0.5,0.4,1,0.8,1.4,1.3c7.4,10.8,10.3,23.6,8.5,37
			c-3.4,25.4-29.2,47.6-55.2,47.6c-0.1,0-0.2,0-0.2,0c-0.1,0-0.3,0-0.4,0c-18.3,0-32.8,5.8-49.9,19.8C8.7,205,7.6,205.3,6.5,205.3z
			 M76.9,99.9c-2.3,0-4.7,0.2-7,0.5c-20.4,3-38.6,25-38.2,46.1c0.3,13.1-2.2,24.7-7.8,36.3c11.5-5.8,23-8.2,36.2-8.4
			c0,0,0.1,0,0.2,0c21,0,42.6-18.5,45.3-38.9c1.4-10.7-0.7-20.6-6.3-29.2C92.3,102,84.9,99.9,76.9,99.9z"/>
	</g>
	<g>
		<path class="st0" d="M76.1,115.8c-2.5,0-5-0.2-7.6-0.5C43.1,111.9,20.8,86,20.9,59.9C21,41.4,15.3,26.8,1.1,9.6
			c-1.6-2-1.5-4.9,0.3-6.7c1.8-1.8,4.7-2,6.7-0.4c17.4,13.9,32,19.4,50.6,19l0,0c25.8-0.2,52.4,21.3,56.1,46.7
			c2,13.4-0.8,26.2-8,37.1c-0.4,0.5-0.8,1-1.3,1.4C96.8,112.8,86.7,115.8,76.1,115.8z M22.6,23.8C28.4,35.3,31,46.9,30.9,60
			c-0.1,21.1,18.5,42.7,38.9,45.5c10.7,1.4,20.6-0.7,29.2-6.3c5.5-8.7,7.5-18.5,5.9-29.3c-3-20.4-24.8-38.6-46-38.2l0,0
			C45.7,31.8,34.2,29.4,22.6,23.8z M58.8,26.6L58.8,26.6L58.8,26.6z"/>
	</g>
	<g>
		<path class="st0" d="M200.4,203.9c-1.1,0-2.2-0.4-3.1-1.1c-17.4-13.9-31.9-19.4-50.6-19c-0.3,0-0.6,0-0.9,0
			c-25.8,0-51.5-21.6-55.2-46.8c-2-13.4,0.8-26.2,8-37.1c0.4-0.5,0.8-1,1.3-1.4c10.8-7.4,23.5-10.4,37-8.5
			c25.5,3.4,47.7,29.3,47.6,55.4l-5,0l5,0c-0.1,18.5,5.7,33.1,19.8,50.3c1.6,2,1.5,4.9-0.3,6.7C202.9,203.4,201.7,203.9,200.4,203.9
			z M148.3,173.7c12.4,0,23.4,2.5,34.5,7.8c-5.8-11.5-8.4-23.1-8.4-36.2c0.1-21.1-18.5-42.7-38.9-45.5c-10.7-1.4-20.6,0.7-29.2,6.3
			c-5.5,8.7-7.5,18.5-5.9,29.3c3,20.4,25,38.9,46,38.2C147.1,173.7,147.7,173.7,148.3,173.7z"/>
	</g>
</g>
</svg>
