<?xml version="1.0" encoding="utf-8"?>
<!-- Generator: Adobe Illustrator 25.4.1, SVG Export Plug-In . SVG Version: 6.00 Build 0)  -->
<svg version="1.1" id="Layer_1" xmlns="http://www.w3.org/2000/svg" xmlns:xlink="http://www.w3.org/1999/xlink" x="0px" y="0px"
	 viewBox="0 0 202.6 212.7" style="enable-background:new 0 0 202.6 212.7;" xml:space="preserve">
<style type="text/css">
	.st0{fill:#f84b24;}
</style>
<g>
	<g>
		<path class="st0" d="M157.6,167.8c-12.9,0-27.1-2-40.5-6.7c-19.7-6.9-32.8-4.6-48-1.9c-11.6,2-24.8,4.4-42,2.1
			c-5.8-0.7-10.7-3.8-14.7-9.1C-10.4,122.1,5.1,19.1,5.8,14.7c0.4-2.7,2.9-4.6,5.7-4.2c2.7,0.4,4.6,3,4.2,5.7
			c-4.4,28.6-12.1,107.8,4.6,130c2.3,3.1,4.9,4.8,8,5.2c15.7,2,27.6-0.1,39-2.1c15.8-2.8,30.8-5.4,53,2.3
			c36.3,12.7,70.4,2.6,72.4-2.5c-0.9-4-20.2-13.2-34.3-19.8c-33-15.7-74.1-35.2-74.5-63.9c-0.4-32.1,1.6-60.5,1.6-60.8
			c0.2-2.8,2.9-4.8,5.3-4.6c2.8,0.2,4.8,2.6,4.6,5.3c0,0.3-2,28.4-1.6,60c0.3,22.5,39.9,41.3,68.8,55c24.9,11.8,41.3,19.6,39.9,30.3
			c-0.5,3.5-2.9,6.6-7.1,9.2C187.5,164.7,173.6,167.8,157.6,167.8z"/>
	</g>
	<g>
		<path class="st0" d="M93.5,212.7H28c-2.8,0-5-2.2-5-5c0-20.8,16.9-37.8,37.8-37.8s37.8,16.9,37.8,37.8
			C98.5,210.5,96.2,212.7,93.5,212.7z M33.4,202.7H88c-2.4-12.9-13.7-22.8-27.3-22.8C47.1,179.9,35.8,189.8,33.4,202.7z"/>
	</g>
	<g>
		<path class="st0" d="M190.6,212.7h-65.5c-2.8,0-5-2.2-5-5c0-20.8,16.9-37.8,37.8-37.8c20.8,0,37.7,16.9,37.7,37.8
			C195.6,210.5,193.4,212.7,190.6,212.7z M130.6,202.7h54.6c-2.4-12.9-13.7-22.8-27.3-22.8C144.3,179.9,132.9,189.8,130.6,202.7z"/>
	</g>
</g>
</svg>
