<?xml version="1.0" encoding="utf-8"?>
<!-- Generator: Adobe Illustrator 25.4.1, SVG Export Plug-In . SVG Version: 6.00 Build 0)  -->
<svg version="1.1" id="Layer_1" xmlns="http://www.w3.org/2000/svg" xmlns:xlink="http://www.w3.org/1999/xlink" x="0px" y="0px"
	 viewBox="0 0 210.5 195.3" style="enable-background:new 0 0 210.5 195.3;" xml:space="preserve">
<style type="text/css">
	.st0{fill:#f84b24;}
</style>
<g>
	<g>
		<path class="st0" d="M80.9,134.7c-8.3,0-80.9-0.6-80.9-20s72.6-20,80.9-20c8.3,0,80.9,0.6,80.9,20S89.2,134.7,80.9,134.7z
			 M10.6,114.7c5,3.8,28.7,10,70.3,10s65.3-6.2,70.3-10c-5-3.8-28.7-10-70.3-10S15.6,110.9,10.6,114.7z M151.9,115.5L151.9,115.5
			L151.9,115.5z"/>
	</g>
	<g>
		<path class="st0" d="M98.3,195.3H63.5c-35,0-63.5-28.5-63.5-63.5v-17c0-2.8,2.2-5,5-5s5,2.2,5,5c2.2,2.9,26.3,10,70.9,10
			c43.8,0,67.8-6.9,70.9-10.6c0-0.3,0.1-0.6,0.2-0.9c0.3-2.3,2.3-3.9,4.9-3.9c2.8,0,4.9,2.6,4.9,5.4v17
			C161.8,166.8,133.3,195.3,98.3,195.3z M10,125.4v6.3c0,29.5,24,53.5,53.5,53.5h34.8c29.5,0,53.5-24,53.5-53.5v-6.3
			c-20.2,9-64.5,9.3-70.9,9.3S30.2,134.4,10,125.4z"/>
	</g>
	<g>
		<path class="st0" d="M98.5,88.7c-3.6,0-7.2-0.7-10.7-2.1c-7.1-2.9-12.6-8.3-15.6-15.3c-6.1-14.5,0.6-31.3,15.1-37.4
			c14.5-6.1,31.3,0.6,37.4,15.1c3,7,3,14.8,0.2,21.8c-2.9,7.1-8.3,12.6-15.3,15.6C106.1,88,102.3,88.7,98.5,88.7z M98.5,41.6
			c-2.4,0-4.9,0.5-7.2,1.5c-9.4,4-13.8,14.9-9.8,24.3c1.9,4.6,5.5,8.1,10.1,9.9c4.6,1.9,9.6,1.8,14.2-0.1c4.6-1.9,8.1-5.5,9.9-10.1
			c1.9-4.6,1.8-9.6-0.1-14.2l0,0C112.6,45.9,105.7,41.6,98.5,41.6z"/>
	</g>
	<g>
		<path class="st0" d="M121.1,71.7c-1.2,0-2.4-0.4-3.4-1.3c-1.4-1.3-2-3.3-1.4-5.1c1.2-4.2,1-8.5-0.7-12.3c-1.6-3.9-4.5-7-8.4-9
			c-1.7-0.9-2.7-2.7-2.7-4.6c0.1-1.9,1.2-3.6,2.9-4.4L179.3,2c5.5-2.5,11.5-2.7,17.1-0.5c5.6,2.2,10,6.4,12.3,11.9
			c2.3,5.5,2.4,11.6,0,17.1c-2.3,5.5-6.7,9.8-12.3,12l-73.6,28.8C122.3,71.5,121.7,71.7,121.1,71.7z M119.2,40.6
			c2.4,2.4,4.3,5.3,5.6,8.5c1.4,3.2,2.1,6.5,2.2,9.9l65.8-25.8c3-1.2,5.4-3.5,6.7-6.5c1.3-3,1.3-6.3,0-9.3c-1.3-3-3.7-5.3-6.7-6.5
			c-3-1.2-6.4-1.1-9.3,0.3l0,0L119.2,40.6z M181.4,6.6L181.4,6.6L181.4,6.6z"/>
	</g>
</g>
</svg>
