<?xml version="1.0" encoding="utf-8"?>
<!-- Generator: Adobe Illustrator 25.4.1, SVG Export Plug-In . SVG Version: 6.00 Build 0)  -->
<svg version="1.1" id="Layer_1" xmlns="http://www.w3.org/2000/svg" xmlns:xlink="http://www.w3.org/1999/xlink" x="0px" y="0px"
	 viewBox="0 0 146.5 224.8" style="enable-background:new 0 0 146.5 224.8;" xml:space="preserve">
<style type="text/css">
	.st0{fill:#f84b24;}
</style>
<g>
	<g>
		<path class="st0" d="M18.4,174.7c-6.4,0-12.4-1.1-14.3-1.4c-2.7-0.5-4.5-3.2-4-5.9c0.5-2.7,3.2-4.5,5.9-4c10.1,2,20,1.4,21.4-0.3
			c0.2-3.1-0.5-6.3-1.2-10c-1.3-5.9-2.7-12.7-0.4-21.4c2.7-10.1,12.5-9.7,20.4-9.4c7.2,0.3,14.6,0.6,19.5-4.7
			c6.2-6.6-13.3-42.4-22.6-59.7C34,41.6,29.8,33.5,29.8,28.8c0-11.2,3.9-24.6,4-25.2c0.8-2.7,3.6-4.1,6.2-3.4
			c2.7,0.8,4.2,3.5,3.4,6.2c0,0.1-3.6,12.6-3.6,22.4c0.2,2.8,6.7,14.8,11.9,24.4c18.9,34.8,31.5,60.3,21.1,71.3
			c-8.1,8.6-19.1,8.2-27.2,7.8c-8.4-0.4-9.8,0.1-10.3,2c-1.7,6.4-0.6,11.4,0.5,16.7c0.9,4.1,1.8,8.3,1.4,13.1
			c-0.2,2.9-1.6,5.3-4,7.1C29.6,173.9,23.9,174.7,18.4,174.7z"/>
	</g>
	<g>
		<path class="st0" d="M117,182.1c-13.6,0-29.5-3.3-29.5-12.5c0-11.9,24.5-12.5,29.5-12.5s29.5,0.6,29.5,12.5
			C146.5,178.9,130.6,182.1,117,182.1z M99.6,169.6c3.2,1.2,9.2,2.5,17.4,2.5c8.1,0,14.1-1.3,17.4-2.5c-3.2-1.2-9.2-2.5-17.4-2.5
			C108.9,167.2,102.9,168.4,99.6,169.6z M136.9,171h0.1H136.9z"/>
	</g>
	<g>
		<path class="st0" d="M117,224.8c-16.2,0-29.5-13.2-29.5-29.5v-25.7c0-2.8,2.2-5,5-5c2.4,0,4.4,1.7,4.9,3.9
			c1.8,1.3,8.8,3.6,19.6,3.6c10.7,0,17.8-2.2,19.6-3.6c0.5-2.2,2.5-3.9,4.9-3.9c2.8,0,5,2.2,5,5v25.7
			C146.5,211.6,133.2,224.8,117,224.8z M97.5,179.5v15.9c0,10.7,8.7,19.5,19.5,19.5c10.7,0,19.5-8.7,19.5-19.5v-15.9
			C125.2,183.2,108.8,183.2,97.5,179.5z"/>
	</g>
	<g>
		<path class="st0" d="M105.7,153.7c-1.7,0-3.4-0.9-4.3-2.5c-4.4-7.5-4-15.8,1.2-21c1.6-2.6,1.9-4.4-1-8.7c-1.5-2.3-0.9-5.4,1.4-6.9
			c2.3-1.6,5.4-0.9,6.9,1.4c5,7.4,5.1,13.6,0.4,20.6c-2.9,3.1-1.9,7-0.3,9.7c1.4,2.4,0.6,5.4-1.8,6.9
			C107.5,153.5,106.6,153.7,105.7,153.7z"/>
	</g>
	<g>
		<path class="st0" d="M123.1,153.7c-1.7,0-3.4-0.9-4.3-2.5c-4.4-7.5-4-15.8,1.2-21c1.6-2.6,1.9-4.4-1-8.7c-1.5-2.3-0.9-5.4,1.4-6.9
			c2.3-1.6,5.4-0.9,6.9,1.4c5,7.4,5.1,13.6,0.4,20.6c-2.9,3.1-1.9,7-0.3,9.7c1.4,2.4,0.6,5.4-1.8,6.9
			C124.9,153.5,124,153.7,123.1,153.7z"/>
	</g>
</g>
</svg>
