<svg xmlns="http://www.w3.org/2000/svg" width="214.531" height="212" viewBox="0 0 214.531 212">
  <defs>
    <style>
      .cls-1 {
        fill: #f84b24;
        fill-rule: evenodd;
      }
    </style>
  </defs>
  <path class="cls-1" d="M92.646,160H34.353a4.975,4.975,0,0,1-4.318-2.5L0.894,107a4.97,4.97,0,0,1,0-4.993L30.036,51.5A4.975,4.975,0,0,1,34.353,49H92.646a4.975,4.975,0,0,1,4.318,2.5l29.142,50.51a4.968,4.968,0,0,1,0,4.993L96.964,157.505A4.975,4.975,0,0,1,92.646,160Zm-55.408-9.986H89.761L116.027,104.5,89.761,58.985H37.238L10.972,104.5Z" transform="translate(-0.25)"/>
  <path class="cls-1" d="M180.646,111H122.353a4.975,4.975,0,0,1-4.317-2.5L88.894,58a4.97,4.97,0,0,1,0-4.993L118.036,2.5A4.975,4.975,0,0,1,122.353,0h58.293a4.976,4.976,0,0,1,4.318,2.5l29.141,50.511a4.968,4.968,0,0,1,0,4.993l-29.141,50.506A4.976,4.976,0,0,1,180.646,111Zm-55.408-9.986h52.523L204.027,55.5,177.761,9.985H125.238L98.972,55.5Z" transform="translate(-0.25)"/>
  <path class="cls-1" d="M180.646,212H122.353a4.975,4.975,0,0,1-4.317-2.5L88.894,159a4.97,4.97,0,0,1,0-4.993L118.036,103.5a4.975,4.975,0,0,1,4.317-2.5h58.293a4.976,4.976,0,0,1,4.318,2.5L214.105,154a4.968,4.968,0,0,1,0,4.993l-29.141,50.51A4.976,4.976,0,0,1,180.646,212Zm-55.408-9.986h52.523L204.027,156.5l-26.266-45.513H125.238L98.972,156.5Z" transform="translate(-0.25)"/>
</svg>
