<?xml version="1.0" encoding="utf-8"?>
<!-- Generator: Adobe Illustrator 25.4.1, SVG Export Plug-In . SVG Version: 6.00 Build 0)  -->
<svg version="1.1" id="Layer_1" xmlns="http://www.w3.org/2000/svg" xmlns:xlink="http://www.w3.org/1999/xlink" x="0px" y="0px"
	 viewBox="0 0 216 114.1" style="enable-background:new 0 0 216 114.1;" xml:space="preserve">
<style type="text/css">
	.st0{fill:#f84b24;}
</style>
<g>
	<g>
		<path class="st0" d="M173.9,71.7c-23.6,0-42.1-12.5-42.1-28.5s18.5-28.5,42.1-28.5c23.6,0,42.1,12.5,42.1,28.5
			S197.5,71.7,173.9,71.7z M173.9,24.7c-17.4,0-32.1,8.5-32.1,18.5c0,10,14.7,18.5,32.1,18.5c17.4,0,32.1-8.5,32.1-18.5
			C206,33.2,191.3,24.7,173.9,24.7z"/>
	</g>
	<g>
		<path class="st0" d="M173.9,110.3c-23.2,0-42.1-18.9-42.1-42.1v-25c0-2.8,2.2-5,5-5c2.8,0,5,2.2,5,5c0,10,14.7,18.5,32.1,18.5
			c17.4,0,32.1-8.5,32.1-18.5c0-2.8,2.2-5,5-5c2.8,0,5,2.2,5,5v25C216,91.4,197.1,110.3,173.9,110.3z M141.9,61.8v6.4
			c0,17.7,14.4,32.1,32.1,32.1c17.7,0,32.1-14.4,32.1-32.1v-6.4c-7.7,6.1-19.1,9.9-32.1,9.9C161,71.7,149.5,67.9,141.9,61.8z"/>
	</g>
	<g>
		<path class="st0" d="M44.5,114.1c-2,0-3.9-1.2-4.7-3.2c-1-2.6,0.3-5.5,2.9-6.5c7.5-2.9,15.1-4,22.4-5.1c9.4-1.4,18.3-2.7,25.4-7.8
			c9.2-6.7,18.2-8.8,26.2-10.6c1.7-0.4,3.5-0.8,5.2-1.2c6.2-1.6,9.8-4.7,9.9-8.7c0.1-2.8-1.5-5-2.8-5.5c-2.4-0.8-6.4-0.1-10.2,0.6
			c-5.9,1.1-12.6,2.3-17.6-1.5c-3.1-2.3-4.9-6.1-5.5-11.3c-1.6-15.4,17.2-21.9,33.8-27.6c6.7-2.3,19.2-6.6,19.7-9.4
			c-0.4-2.3-1.6-4.9-6.2-6c-19-4.4-66.5,20.7-81,39.6C47.8,68.5,6.6,67.4,4.9,67.4C2.1,67.3-0.1,65,0,62.3c0.1-2.8,2.5-4.9,5.1-4.9
			c10.4,0.3,39.7-1.5,48.9-13.4c15.5-20.1,66.3-49,91.2-43.2c7.5,1.7,12.3,6.6,13.8,13.7c2.2,11-11.6,15.8-26.2,20.8
			c-12.4,4.3-27.9,9.6-27.1,17.1c0.2,2.2,0.8,3.7,1.5,4.3c1.6,1.2,6.1,0.3,9.8-0.4c4.9-0.9,10.4-1.9,15.2-0.3
			c5.8,1.9,9.8,8.4,9.6,15.3c-0.3,8.5-6.8,15.3-17.4,18c-1.8,0.5-3.6,0.9-5.4,1.3c-7.7,1.8-15,3.5-22.6,9
			c-9.1,6.6-19.6,8.1-29.8,9.6c-6.8,1-13.8,2-20.3,4.5C45.7,114,45.1,114.1,44.5,114.1z"/>
	</g>
</g>
</svg>
