<?xml version="1.0" encoding="utf-8"?>
<!-- Generator: Adobe Illustrator 25.4.1, SVG Export Plug-In . SVG Version: 6.00 Build 0)  -->
<svg version="1.1" id="Layer_1" xmlns="http://www.w3.org/2000/svg" xmlns:xlink="http://www.w3.org/1999/xlink" x="0px" y="0px"
	 viewBox="0 0 146.9 220.3" style="enable-background:new 0 0 146.9 220.3;" xml:space="preserve">
<style type="text/css">
	.st0{fill:#f84b24;}
</style>
<g>
	<g>
		<path class="st0" d="M73.5,181.4c-35.6,0-73.5-11-73.5-31.3c0-20.3,37.9-31.3,73.5-31.3c35.6,0,73.5,11,73.5,31.3
			C146.9,170.5,109.1,181.4,73.5,181.4z M73.5,128.8c-39.3,0-63.5,12.4-63.5,21.3s24.1,21.3,63.5,21.3s63.5-12.4,63.5-21.3
			S112.8,128.8,73.5,128.8z"/>
	</g>
	<g>
		<path class="st0" d="M111,220.3h-75C16.1,220.3,0,204.2,0,184.4v-34.2c0-2.8,2.2-5,5-5c2.8,0,5,2.2,5,5c0,8.9,24.1,21.3,63.5,21.3
			s63.5-12.4,63.5-21.3c0-2.8,2.2-5,5-5c2.8,0,5,2.2,5,5v34.2C146.9,204.2,130.8,220.3,111,220.3z M10,166.5v17.9
			c0,14.3,11.6,25.9,25.9,25.9h75c14.3,0,25.9-11.6,25.9-25.9v-17.9c-13.6,9.8-39.1,14.9-63.5,14.9S23.6,176.3,10,166.5z"/>
	</g>
	<g>
		<path class="st0" d="M73.5,151.8c-2.8,0-5-2.2-5-5v-42.2c0-2.8,2.2-5,5-5c2.8,0,5,2.2,5,5v42.2C78.5,149.6,76.2,151.8,73.5,151.8z
			"/>
	</g>
	<g>
		<path class="st0" d="M73.5,84.1c-1.2,0-2.4-0.4-3.3-1.3c-0.7-0.6-16.6-15-15-36.6c1-12.8,7.9-21,14-28.2c4.1-4.8,7.9-9.3,9.6-14.6
			c0.6-1.9,2.3-3.3,4.4-3.5c2-0.2,4,0.9,4.9,2.8c0.8,1.5,18.2,37.2,8.2,61.8c-3.8,9.3-10.9,15.8-21,19.3C74.6,84,74,84.1,73.5,84.1z
			 M83,16.8c-1.9,2.8-4.1,5.3-6.2,7.8C71.2,31.2,65.8,37.4,65.1,47c-0.9,12.4,6,22.1,9.6,26.2c5.8-2.7,9.8-6.8,12.1-12.5
			C92.5,47.2,87.2,28.1,83,16.8z"/>
	</g>
</g>
</svg>
