<svg xmlns="http://www.w3.org/2000/svg" width="578.813" height="154.813" viewBox="0 0 578.813 154.813">
  <defs>
    <style>
      .cls-1 {
        fill: #f84b24;
        fill-rule: evenodd;
      }
    </style>
  </defs>
  <path class="cls-1" d="M91.783,27.141c-0.231,3.114-.444,6-0.656,8.865,20.432-13.653,41.585-11.16,42.315-12.41l-10.129-8.781C110.821,14.826,100.17,18.381,91.783,27.141ZM83.069,65.587c-8.541,20.772-5.291-3.982,60.742-8.409a79.978,79.978,0,0,1,8.663.322l-2.427-7.532C118.392,42.176,86.445,57.377,83.069,65.587ZM66.089,0.936c2.886,10.384,11.084,16.78,19.54,22.583,0-8.99-5.174-23.724-9.155-23.381C72.062,0.517,77.64-.269,66.089.936ZM150.2,104.7c0.724-2.248,1.478-4.591,2.257-7.012-11.673-4.312-58.742,1.689-81.757,28.947-2.062,2.442-3.85,5.118-5.731,7.71-1.161,1.6,1.924,11.108,2.4,11.632,0.78,0.87,1.484-4.614,8.3-12.054C93.517,114.434,128.008,103.8,150.2,104.7Zm-2.537,5.875c-14.9-1.958-62.469,12.724-73.722,35.266a61.968,61.968,0,0,0-2.517,6.938c3.39,2.567,0,2.117,12.054,2.117,3.114-6.165,7.411-14.372,23.763-22.05,13.008-6.109,21.725-5.112,28.92-4.6A77.4,77.4,0,0,0,147.661,110.572ZM89.827,153.786C90.5,154.4,112.1,151.2,130.656,134,130.373,132.9,105.87,133.308,89.827,153.786ZM54.209,3.7C58.145,20.109,70.464,35.182,83.7,44.342l2.089-13.987c-12.041-6.4-20.948-15.241-25.112-28.4Zm36.237,39.85c-1.143.992-.865,1.458-3.576,11.09,1.778-.938,9.37-7.358,25.686-10.764,15.2-3.175,25.118-2.419,34.358-.868a76.232,76.232,0,0,0-8.155-12.968C122.01,30.037,103.1,32.562,90.447,43.547Zm23.8-34.121C109.552,5.878,91.034.215,85.451,0.6,88.9,6.572,90.5,13.1,91.409,19.962A47.73,47.73,0,0,1,114.247,9.426ZM43.058,8.213c4.2,24.887,19.84,46.04,34.9,54.283l4-12.085C65.714,39.145,53.946,24.943,49.046,5.548Zm111.951,74c-11.8-3.324-46.491-3.2-77.3,18.061-2.552,1.762-11.728,9.088-12.205,11.842-2.24,12.926-1.791,11.43-1.931,14.25,1.768-.79,11.337-20.809,50.459-31.692,12.053-3.351,27.541-5.868,39.8-2.894C154.232,88.558,154.62,85.386,155.009,82.211ZM17.215,125.951c18.606,23.209,46.045,28.42,48.42,28.017-4.763-8.881-3.037-5.057-6.623-14.692C35.206,128.7,9.54,104.977.431,72.158-1.1,90.142,4.581,110.192,17.215,125.951ZM154.078,64.47c-10.785-4.59-60.41,3.481-77.672,18.674-1.094.964-.436-0.389-6.3,14.281-3.377,8.446,4.032-8.746,39.65-18.5A107.668,107.668,0,0,1,155.188,76.1Q154.623,70.173,154.078,64.47ZM57.127,131.725c2.177,1.174-1.158-.553,1.584-16.381-24.823-9.9-49.322-37.537-50.573-71.681C-3.148,65.677,14.508,108.758,57.127,131.725ZM33.251,14.073C32.728,23.967,43.36,60.81,72.389,76.257l3.345-8.232c-15.91-8.413-32.12-28.313-37.812-56.979ZM23.667,21.99C26.81,39.217,27.35,74.824,65.114,93.6l4.917-12.026c-22.765-10.22-37.778-37.2-42.1-63.43ZM14.014,33.474c-1.728,2.275-2.511,53.911,45.918,75.941,1.079-3.512,2.11-6.867,3.131-10.193C32.666,84.083,22.25,60.112,18.786,27.388,18.5,27.558,19.091,26.8,14.014,33.474Z" transform="translate(-0.188 -0.125)"/>
  <path id="Motion_copy" data-name="Motion copy" class="cls-1" d="M213.024,118.619V77.984L210.96,49.476l10.191,24.768,14.963,29.8H250.82l14.964-29.8,9.933-24.768-1.806,28.508v40.635h14.576V32.19h-17.8L252.11,70.116l-8.643,22.059-8.514-22.059L216.378,32.19H198.447v86.429h14.577Zm117.965,1.29c18.317,0,30.7-13.158,30.7-32.637,0-19.608-12.384-32.765-30.7-32.765-18.06,0-30.444,13.158-30.444,32.765C300.545,106.751,312.929,119.909,330.989,119.909Zm0.129-12c-9.288,0-15.738-6.192-15.738-20.64,0-14.577,6.45-20.769,15.738-20.769,9.416,0,15.866,6.192,15.866,20.769C346.984,101.72,340.534,107.912,331.118,107.912Zm64.13,12.126c9.158,0,15.35-4.257,18.059-8.256l-4.515-12.9c-1.806,3.612-5.418,7.611-10.319,7.611-4.257,0-7.482-1.677-7.482-8.514V67.02h19.22V55.8h-19.22V39.027l-14.448,9.159V55.8h-9.8V67.02h9.8v34.442C376.543,112.556,383.38,120.038,395.248,120.038ZM437.992,46.9V32.19H423.544V46.9h14.448Zm0,71.723V55.8H423.544v62.822h14.448Zm42,1.29c18.317,0,30.7-13.158,30.7-32.637,0-19.608-12.384-32.765-30.7-32.765-18.06,0-30.444,13.158-30.444,32.765C449.545,106.751,461.929,119.909,479.989,119.909Zm0.129-12c-9.288,0-15.738-6.192-15.738-20.64,0-14.577,6.45-20.769,15.738-20.769,9.416,0,15.866,6.192,15.866,20.769C495.984,101.72,489.534,107.912,480.118,107.912Zm57.874,10.707V83.4c0-10.32,3.612-17.157,14.189-17.157,9.675,0,12.255,5.289,12.255,13.029v39.345h14.577V74.889c0-13.029-7.482-20.382-19.737-20.382-12.512,0-18.962,8.514-21.284,18.447V55.8H523.544v62.822h14.448Z" transform="translate(-0.188 -0.125)"/>
</svg>
