<svg xmlns="http://www.w3.org/2000/svg" width="58.531" height="58.41" viewBox="0 0 58.531 58.41">
  <defs>
    <style>
      .cls-1 {
        fill: #f84b24;
        fill-rule: evenodd;
      }
    </style>
  </defs>
  <path class="cls-1" d="M158.023,5350.5c-0.087,1.18-.168,2.26-0.248,3.35,7.714-5.16,15.7-4.22,15.975-4.69-1.3-1.13-2.6-2.25-3.823-3.31C165.21,5345.85,161.189,5347.19,158.023,5350.5Zm-3.29,14.51c-3.224,7.84-2-1.5,22.932-3.17a30.214,30.214,0,0,1,3.271.12c-0.3-.92-0.609-1.89-0.917-2.84C168.069,5356.17,156.008,5361.91,154.733,5365.01Zm-6.41-24.4c1.089,3.92,4.184,6.33,7.377,8.52,0-3.39-1.954-8.95-3.457-8.82A33.308,33.308,0,0,0,148.323,5340.61Zm31.753,39.17c0.274-.85.558-1.74,0.852-2.65-4.407-1.63-22.176.64-30.865,10.93-0.779.92-1.453,1.93-2.164,2.91-0.438.6,0.726,4.19,0.9,4.39,0.3,0.33.561-1.74,3.134-4.55C158.678,5383.45,171.7,5379.44,180.076,5379.78Zm-0.958,2.21c-5.625-.73-23.583,4.81-27.832,13.32a22.914,22.914,0,0,0-.95,2.62c1.28,0.97,0,.79,4.551.79,1.176-2.32,2.8-5.42,8.971-8.32a19.007,19.007,0,0,1,10.918-1.73A29.109,29.109,0,0,0,179.118,5381.99Zm-21.833,16.32c0.252,0.23,8.407-.98,15.414-7.47C172.592,5390.42,163.341,5390.58,157.285,5398.31Zm-13.447-56.66c1.486,6.19,6.136,11.88,11.133,15.34,0.275-1.84.534-3.57,0.789-5.28-4.546-2.41-7.909-5.75-9.481-10.72C145.486,5341.2,144.682,5341.42,143.838,5341.65Zm13.68,15.04c-0.431.38-.326,0.55-1.35,4.19a25.159,25.159,0,0,1,9.7-4.06,32.164,32.164,0,0,1,12.971-.33,28.822,28.822,0,0,0-3.079-4.9C169.435,5351.59,162.295,5352.55,157.518,5356.69Zm8.986-12.88c-1.773-1.34-8.764-3.48-10.872-3.33a19.39,19.39,0,0,1,2.25,7.31A18.087,18.087,0,0,1,166.5,5343.81Zm-26.876-.46c1.587,9.4,7.49,17.38,13.177,20.5,0.53-1.6,1.035-3.13,1.511-4.57-6.135-4.25-10.578-9.61-12.427-16.93C141.166,5342.67,140.431,5343,139.628,5343.35Zm42.265,27.94c-4.456-1.26-17.552-1.21-29.182,6.82-0.963.66-4.427,3.43-4.608,4.47-0.845,4.88-.676,4.31-0.729,5.38,0.668-.3,4.28-7.86,19.05-11.97,4.551-1.26,10.4-2.21,15.026-1.09C181.6,5373.68,181.746,5372.49,181.893,5371.29Zm-52.022,16.51c7.025,8.76,17.384,10.73,18.281,10.58a23.817,23.817,0,0,1-2.5-5.55c-8.987-3.99-18.677-12.95-22.116-25.34A29.152,29.152,0,0,0,129.871,5387.8Zm51.67-23.21c-4.071-1.73-22.806,1.31-29.323,7.05-0.413.36-.165-0.15-2.379,5.39-1.275,3.19,1.522-3.3,14.969-6.98a40.637,40.637,0,0,1,17.152-1.07C181.818,5367.49,181.679,5366.03,181.541,5364.59Zm-36.6,25.39c0.822,0.44-.437-0.21.6-6.18-9.371-3.74-18.62-14.17-19.092-27.06C122.184,5365.05,128.849,5381.31,144.939,5389.98Zm-9.013-44.41c-0.2,3.73,3.816,17.64,14.775,23.47,0.449-1.1.859-2.11,1.263-3.11-6.007-3.17-12.126-10.69-14.275-21.51C137.1,5344.81,136.507,5345.19,135.926,5345.57Zm-3.619,2.98c1.187,6.51,1.391,19.95,15.648,27.04,0.631-1.55,1.243-3.04,1.856-4.54-8.594-3.86-14.262-14.04-15.894-23.95C133.357,5347.61,132.83,5348.08,132.307,5348.55Zm-3.644,4.34c-0.652.86-.948,20.35,17.335,28.67,0.408-1.33.8-2.6,1.183-3.85-11.476-5.72-15.409-14.76-16.716-27.12C130.356,5350.66,130.58,5350.37,128.663,5352.89Z" transform="translate(-123.438 -5340.31)"/>
</svg>
