<svg id="Logo" xmlns="http://www.w3.org/2000/svg" width="129.906" height="38" viewBox="0 0 129.906 38">
  <defs>
    <style>
      .cls-1 {
        fill: #f84b24;
        fill-rule: evenodd;
      }
    </style>
  </defs>
  <path id="Shape_1_copy" data-name="Shape 1 copy" class="cls-1" d="M23.048,6.719c-0.058.763-.112,1.469-0.165,2.171C28.024,5.546,33.347,6.157,33.53,5.851L30.982,3.7A10.577,10.577,0,0,0,23.048,6.719Zm-2.193,9.415c-2.149,5.087-1.331-.976,15.284-2.059a20.584,20.584,0,0,1,2.18.079l-0.611-1.845C29.744,10.4,21.705,14.124,20.856,16.134ZM16.583,0.3c0.726,2.543,2.789,4.11,4.917,5.53,0-2.2-1.3-5.81-2.3-5.726A24.68,24.68,0,0,0,16.583.3Zm21.163,25.41,0.568-1.717c-2.937-1.056-14.781.414-20.571,7.089-0.519.6-.969,1.254-1.442,1.888-0.292.391,0.484,2.72,0.6,2.849,0.2,0.213.373-1.13,2.089-2.952C23.485,28.1,32.163,25.492,37.746,25.712Zm-0.639,1.439c-3.75-.48-15.718,3.116-18.55,8.637a14.883,14.883,0,0,0-.633,1.7c0.853,0.629,0,.519,3.033.519,0.784-1.51,1.865-3.52,5.979-5.4a12.985,12.985,0,0,1,7.277-1.126A18.9,18.9,0,0,0,37.108,27.151ZM22.556,37.733c0.168,0.151,5.6-.634,10.273-4.845C32.758,32.62,26.593,32.719,22.556,37.733ZM13.594,0.977c0.99,4.019,4.09,7.711,7.42,9.954,0.183-1.2.356-2.318,0.526-3.426A11.888,11.888,0,0,1,15.221.55Zm9.118,9.759c-0.288.243-.218,0.357-0.9,2.716a16.977,16.977,0,0,1,6.463-2.636A22.074,22.074,0,0,1,36.92,10.6a18.611,18.611,0,0,0-2.052-3.176C30.654,7.428,25.9,8.046,22.712,10.737ZM28.7,2.381A19.509,19.509,0,0,0,21.455.218a12.37,12.37,0,0,1,1.5,4.742A12.156,12.156,0,0,1,28.7,2.381Zm-17.913-.3c1.058,6.095,4.992,11.275,8.782,13.294l1.007-2.959c-4.088-2.759-7.05-6.237-8.283-10.987ZM38.957,20.2c-2.97-.814-11.7-0.783-19.449,4.423-0.642.431-2.951,2.225-3.071,2.9a16.22,16.22,0,0,0-.486,3.49c0.445-.194,2.853-5.1,12.7-7.761,3.033-.821,6.93-1.437,10.015-0.709ZM4.286,30.917c4.682,5.684,11.586,6.96,12.183,6.861a15.188,15.188,0,0,1-1.666-3.6C8.813,31.589,2.355,25.78.062,17.743A18.565,18.565,0,0,0,4.286,30.917ZM38.723,15.86c-2.714-1.124-15.2.853-19.544,4.573-0.275.236-.109-0.1-1.586,3.5C16.744,26,18.608,21.789,27.57,19.4A27.808,27.808,0,0,1,39,18.709Q38.859,17.257,38.723,15.86ZM14.328,32.331c0.548,0.287-.292-0.136.4-4.012C8.481,25.894,2.316,19.127,2,10.765-0.838,16.156,3.6,26.706,14.328,32.331ZM8.32,3.518c-0.131,2.423,2.544,11.446,9.848,15.229l0.841-2.016c-4-2.06-8.082-6.934-9.514-13.954ZM5.909,5.457C6.7,9.676,6.836,18.4,16.338,22.994l1.237-2.945c-5.728-2.5-9.505-9.109-10.593-15.534ZM3.48,8.27c-0.435.557-.632,13.2,11.554,18.6l0.788-2.5C8.173,20.664,5.552,14.793,4.681,6.779A7.75,7.75,0,0,0,3.48,8.27Z"/>
  <path id="Rehab" class="cls-1" d="M53.623,29.157v-7.8h2.46c1.89,0,2.91.48,3.66,1.83l3.48,5.97h3.9l-3.42-5.79A4.559,4.559,0,0,0,60.972,21c3.15-.36,5.46-2.34,5.46-5.7,0-4.14-3.06-6.24-7.14-6.24h-9.06v20.1h3.39Zm5.34-17.1c2.13,0,3.96.78,3.96,3.33,0,2.43-1.83,3.21-3.96,3.21h-5.34v-6.54h5.34Zm16.54,17.4a7.164,7.164,0,0,0,6.33-3.15l-2.07-2.16a4.194,4.194,0,0,1-4.23,2.55c-2.31,0-3.84-1.41-4.02-4.02h10.44a9.026,9.026,0,0,0,.12-1.47c0-4.05-2.43-6.96-6.81-6.96-4.11,0-6.96,3.03-6.96,7.62C68.3,26.427,71.153,29.457,75.5,29.457Zm-0.24-12.509c2.22,0,3.54,1.26,3.78,3.57h-7.5C71.813,18.147,73.193,16.948,75.263,16.948Zm13.12,12.209v-8.19c0-2.4.84-3.99,3.3-3.99,2.25,0,2.85,1.23,2.85,3.03v9.15h3.39V18.987c0-3.03-1.74-4.74-4.59-4.74-2.91,0-4.41,1.98-4.95,4.29V9.058h-3.36v20.1h3.36Zm15.73,0.3a4.988,4.988,0,0,0,4.92-4.2v1.08a2.506,2.506,0,0,0,2.789,2.82h2.07v-2.88h-0.93a0.7,0.7,0,0,1-.78-0.87v-5.49c0-3.6-2.039-5.67-5.669-5.67a8.207,8.207,0,0,0-6.66,3.24l2.01,2.4a4.912,4.912,0,0,1,4.32-2.67c2.01,0,2.67.99,2.79,2.46l-4.89,2.07c-2.37.93-3.81,2.19-3.81,4.26C100.273,28.107,101.713,29.457,104.113,29.457Zm-0.6-3.96c0-.75.51-1.26,1.77-1.83l3.75-1.68v1.56c0,1.98-1.5,3.3-3.72,3.3C104.083,26.847,103.513,26.337,103.513,25.5Zm15.87,3.66v-3.87c0.48,2.25,1.71,4.2,4.62,4.2,3.629,0,5.909-2.91,5.909-7.62s-2.28-7.62-5.849-7.62c-2.91,0-4.2,1.95-4.68,4.23V9.058h-3.36v20.1h3.36Zm0-6.36v-1.83c0-2.4.99-3.99,3.36-3.99,2.13,0,3.719,1.62,3.719,4.89,0,3.3-1.589,4.89-3.719,4.89C120.373,26.757,119.383,25.2,119.383,22.8Z"/>
</svg>
