<svg xmlns="http://www.w3.org/2000/svg" width="155.75" height="38" viewBox="0 0 155.75 38">
  <defs>
    <style>
      .cls-1 {
        fill: #f84b24;
        fill-rule: evenodd;
      }
    </style>
  </defs>
  <path id="Therapy" class="cls-1" d="M170.86,50.458V33.137h6.168V30.1h-15.69v3.039h6.138V50.458h3.384Zm12.027,0v-8.3c0-2.431.838-4.042,3.293-4.042,2.246,0,2.845,1.246,2.845,3.069v9.269h3.383v-10.3c0-3.069-1.736-4.8-4.581-4.8-2.9,0-4.4,2.006-4.94,4.346V30.1h-3.354v20.36h3.354Zm19.083,0.3a7.121,7.121,0,0,0,6.318-3.191l-2.066-2.188A4.185,4.185,0,0,1,202,47.966c-2.305,0-3.832-1.428-4.012-4.072h10.42a9.4,9.4,0,0,0,.119-1.489c0-4.1-2.425-7.05-6.8-7.05-4.1,0-6.947,3.069-6.947,7.719C194.784,47.693,197.629,50.762,201.97,50.762ZM201.731,38.09c2.215,0,3.533,1.276,3.772,3.616h-7.485C198.287,39.305,199.665,38.09,201.731,38.09Zm13.1,12.368V42.314c0-2.462,1.557-4.406,3.233-4.406a1.31,1.31,0,0,1,1.378,1.489,3.659,3.659,0,0,1-.928,2.31h3.443a6.191,6.191,0,0,0,.659-2.948,3.078,3.078,0,0,0-3.174-3.4c-2.605,0-4.072,2.127-4.611,4.5V35.659h-3.354v14.8h3.354Zm12.705,0.3c3.054,0,4.462-2.309,4.911-4.254V47.6a2.519,2.519,0,0,0,2.784,2.857h2.066V47.541h-0.928c-0.539,0-.778-0.213-0.778-0.881V41.1c0-3.647-2.036-5.743-5.659-5.743a8.152,8.152,0,0,0-6.647,3.282l2.006,2.431a4.9,4.9,0,0,1,4.311-2.7c2.006,0,2.665,1,2.785,2.492l-4.881,2.1c-2.365.942-3.8,2.218-3.8,4.315C223.7,49.394,225.136,50.762,227.531,50.762Zm-0.6-4.011c0-.76.509-1.276,1.766-1.854l3.743-1.7v1.58c0,2.006-1.5,3.343-3.713,3.343C227.5,48.118,226.933,47.6,226.933,46.751Zm15.839,9.36v-9.6c0.479,2.279,1.707,4.254,4.611,4.254,3.593,0,5.869-2.948,5.869-7.719s-2.276-7.719-5.809-7.719c-2.9,0-4.192,1.975-4.671,4.285v-3.95h-3.353V56.11h3.353Zm0-12.155V42.131c0-2.431.988-4.042,3.354-4.042,2.1,0,3.683,1.611,3.683,4.953S248.222,48,246.126,48C243.76,48,242.772,46.386,242.772,43.955Zm15.461,11.578c2.365,0,4.072-1.064,5.12-4.042l5.389-15.832h-3.713l-2.6,8.387L261.377,48l-1.048-3.95-2.635-8.387h-3.683l4.821,13.887H260.9l-0.27.821c-0.539,1.641-1.258,2.158-2.395,2.158a3.7,3.7,0,0,1-3.024-1.975l-1.587,2.735A5.731,5.731,0,0,0,258.233,55.533Z" transform="translate(-113 -21)"/>
  <path id="Shape_1_copy" data-name="Shape 1 copy" class="cls-1" d="M136.048,27.719c-0.058.763-.112,1.469-0.165,2.171,5.141-3.344,10.464-2.733,10.647-3.039l-2.548-2.15A10.576,10.576,0,0,0,136.048,27.719Zm-2.192,9.415c-2.149,5.087-1.332-.975,15.283-2.059a20.638,20.638,0,0,1,2.18.079c-0.2-.6-0.406-1.226-0.611-1.845C142.744,31.4,134.705,35.124,133.856,37.134ZM129.583,21.3c0.726,2.543,2.789,4.109,4.917,5.53,0-2.2-1.3-5.81-2.3-5.726A24.744,24.744,0,0,0,129.583,21.3Zm21.163,25.411c0.183-.551.372-1.125,0.568-1.717-2.937-1.056-14.78.413-20.571,7.089-0.519.6-.969,1.254-1.442,1.888-0.292.391,0.484,2.72,0.6,2.849,0.2,0.213.374-1.13,2.089-2.952C136.485,49.1,145.163,46.493,150.746,46.712Zm-0.638,1.439c-3.75-.479-15.718,3.116-18.55,8.637a14.991,14.991,0,0,0-.633,1.7c0.853,0.629,0,.519,3.033.519,0.784-1.51,1.865-3.52,5.979-5.4a12.984,12.984,0,0,1,7.277-1.126A18.928,18.928,0,0,0,150.108,48.151ZM135.556,58.734c0.168,0.15,5.6-.634,10.273-4.845C145.758,53.62,139.593,53.719,135.556,58.734Zm-8.962-36.756c0.99,4.019,4.09,7.711,7.42,9.954,0.184-1.2.356-2.318,0.526-3.425a11.888,11.888,0,0,1-6.319-6.955Zm9.118,9.759c-0.288.243-.218,0.357-0.9,2.716a16.991,16.991,0,0,1,6.463-2.636,22.083,22.083,0,0,1,8.645-.213,18.521,18.521,0,0,0-2.052-3.176C143.654,28.428,138.9,29.047,135.712,31.737Zm5.989-8.356a19.513,19.513,0,0,0-7.246-2.162,12.378,12.378,0,0,1,1.5,4.742A12.161,12.161,0,0,1,141.7,23.381Zm-17.913-.3c1.058,6.095,4.992,11.275,8.782,13.294l1.007-2.959c-4.088-2.759-7.049-6.237-8.282-10.987Zm28.169,18.122c-2.97-.814-11.7-0.784-19.449,4.423-0.642.431-2.951,2.225-3.071,2.9a16.184,16.184,0,0,0-.486,3.49c0.445-.194,2.853-5.1,12.7-7.761,3.033-.821,6.93-1.437,10.015-0.709C151.761,42.76,151.859,41.983,151.957,41.205ZM117.286,51.917c4.681,5.684,11.585,6.96,12.183,6.861a15.2,15.2,0,0,1-1.666-3.6c-5.99-2.591-12.448-8.4-14.741-16.437A18.567,18.567,0,0,0,117.286,51.917Zm34.437-15.057c-2.714-1.124-15.2.852-19.544,4.573-0.275.236-.109-0.1-1.586,3.5-0.849,2.068,1.015-2.142,9.977-4.53A27.809,27.809,0,0,1,152,39.709Q151.86,38.257,151.723,36.861Zm-24.4,16.471c0.548,0.287-.291-0.136.4-4.012-6.246-2.425-12.411-9.193-12.725-17.555C112.162,37.156,116.6,47.706,127.328,53.331ZM121.32,24.519c-0.131,2.423,2.544,11.446,9.849,15.229,0.3-.716.572-1.37,0.841-2.016-4-2.06-8.082-6.934-9.514-13.954Zm-2.411,1.939c0.791,4.219.927,12.939,10.429,17.537,0.421-1,.828-1.973,1.237-2.945-5.728-2.5-9.5-9.109-10.593-15.534ZM116.48,29.27c-0.435.557-.632,13.2,11.554,18.6,0.271-.86.531-1.682,0.788-2.5-7.649-3.707-10.269-9.578-11.141-17.592A7.793,7.793,0,0,0,116.48,29.27Z" transform="translate(-113 -21)"/>
</svg>
